<svg width="17" height="15" viewBox="0 0 17 15" fill="none" xmlns="http://www.w3.org/2000/svg">
<path d="M10 0C10.9205 0 11.6667 0.746192 11.6667 1.66667V4.16667H15C15.9205 4.16667 16.6667 4.91286 16.6667 5.83333V13.3333C16.6667 14.2538 15.9205 15 15 15H1.66667C0.746192 15 0 14.2538 0 13.3333V8.33333C0 7.41283 0.746192 6.66667 1.66667 6.66667H5V1.66667C5 0.746192 5.74619 0 6.66667 0H10ZM10 1.66667H6.66667V13.3333H10V1.66667ZM15 5.83333H11.6667V13.3333H15V5.83333ZM5 8.33333H1.66667V13.3333H5V8.33333Z" fill="#8491A5"/>
</svg>
