<svg width="21" height="23" viewBox="0 0 21 23" fill="none" xmlns="http://www.w3.org/2000/svg">
<g filter="url(#filter0_d_132_922)">
<path fill-rule="evenodd" clip-rule="evenodd" d="M12.4719 3H8.67416V4.2973H12.4719V3ZM14.3708 4.2973H15.3933C15.6353 4.2973 15.8315 4.5151 15.8315 4.78378V13.2162C15.8315 13.4849 15.6353 13.7027 15.3933 13.7027H5.60674C5.36473 13.7027 5.16854 13.4849 5.16854 13.2162V4.78378C5.16854 4.5151 5.36473 4.2973 5.60674 4.2973H6.77528V3H5.60674C4.71936 3 4 3.79863 4 4.78378V13.2162C4 14.2014 4.71936 15 5.60674 15H15.3933C16.2806 15 17 14.2014 17 13.2162V4.78378C17 3.79863 16.2806 3 15.3933 3H14.3708V4.2973Z" fill="#8491A5"/>
<path d="M8.33333 2.72C8.33333 2.32236 8.57584 2 8.87499 2C9.17415 2 9.41666 2.32236 9.41666 2.72V5.28C9.41666 5.67764 9.17415 6 8.87499 6C8.57584 6 8.33333 5.67764 8.33333 5.28V2.72Z" fill="#8491A5"/>
<path d="M12.6667 2.72C12.6667 2.32235 12.4242 2 12.125 2C11.8259 2 11.5833 2.32235 11.5833 2.72V5.28C11.5833 5.67764 11.8259 6 12.125 6C12.4242 6 12.6667 5.67764 12.6667 5.28V2.72Z" fill="#8491A5"/>
</g>
<g filter="url(#filter1_d_132_922)">
<path d="M10.4801 13.0795C10.1241 13.0795 9.80398 13.0114 9.51989 12.875C9.23769 12.7367 9.01231 12.5473 8.84375 12.3068C8.67519 12.0663 8.58523 11.7917 8.57386 11.483H9.42614C9.44697 11.733 9.55777 11.9384 9.75852 12.0994C9.95928 12.2604 10.1998 12.3409 10.4801 12.3409C10.7036 12.3409 10.9015 12.2898 11.0739 12.1875C11.2481 12.0833 11.3845 11.9403 11.483 11.7585C11.5833 11.5767 11.6335 11.3693 11.6335 11.1364C11.6335 10.8996 11.5824 10.6884 11.4801 10.5028C11.3778 10.3172 11.2367 10.1714 11.0568 10.0653C10.8788 9.95928 10.6742 9.9053 10.4432 9.90341C10.267 9.90341 10.09 9.93371 9.91193 9.99432C9.7339 10.0549 9.58996 10.1345 9.48011 10.233L8.67614 10.1136L9.00284 7.18182H12.2017V7.93466H9.73295L9.5483 9.5625H9.58239C9.69602 9.45265 9.84659 9.3608 10.0341 9.28693C10.2235 9.21307 10.4261 9.17614 10.642 9.17614C10.9962 9.17614 11.3116 9.26042 11.5881 9.42898C11.8665 9.59754 12.0852 9.82765 12.2443 10.1193C12.4053 10.4091 12.4848 10.7424 12.483 11.1193C12.4848 11.4962 12.3996 11.8324 12.2273 12.1278C12.0568 12.4233 11.8201 12.6562 11.517 12.8267C11.2159 12.9953 10.8703 13.0795 10.4801 13.0795Z" fill="#526581"/>
</g>
<defs>
<filter id="filter0_d_132_922" x="0" y="2" width="21" height="21" filterUnits="userSpaceOnUse" color-interpolation-filters="sRGB">
<feFlood flood-opacity="0" result="BackgroundImageFix"/>
<feColorMatrix in="SourceAlpha" type="matrix" values="0 0 0 0 0 0 0 0 0 0 0 0 0 0 0 0 0 0 127 0" result="hardAlpha"/>
<feOffset dy="4"/>
<feGaussianBlur stdDeviation="2"/>
<feComposite in2="hardAlpha" operator="out"/>
<feColorMatrix type="matrix" values="0 0 0 0 0 0 0 0 0 0 0 0 0 0 0 0 0 0 0.25 0"/>
<feBlend mode="normal" in2="BackgroundImageFix" result="effect1_dropShadow_132_922"/>
<feBlend mode="normal" in="SourceGraphic" in2="effect1_dropShadow_132_922" result="shape"/>
</filter>
<filter id="filter1_d_132_922" x="4.57387" y="7.18182" width="11.9119" height="13.8977" filterUnits="userSpaceOnUse" color-interpolation-filters="sRGB">
<feFlood flood-opacity="0" result="BackgroundImageFix"/>
<feColorMatrix in="SourceAlpha" type="matrix" values="0 0 0 0 0 0 0 0 0 0 0 0 0 0 0 0 0 0 127 0" result="hardAlpha"/>
<feOffset dy="4"/>
<feGaussianBlur stdDeviation="2"/>
<feComposite in2="hardAlpha" operator="out"/>
<feColorMatrix type="matrix" values="0 0 0 0 0 0 0 0 0 0 0 0 0 0 0 0 0 0 0.25 0"/>
<feBlend mode="normal" in2="BackgroundImageFix" result="effect1_dropShadow_132_922"/>
<feBlend mode="normal" in="SourceGraphic" in2="effect1_dropShadow_132_922" result="shape"/>
</filter>
</defs>
</svg>
