<svg width="16" height="18" viewBox="0 0 16 18" fill="none" xmlns="http://www.w3.org/2000/svg">
<path d="M9.83155 8.14236H13.5184C14.4599 8.14236 15.22 8.92006 15.22 9.88341V15.3839C15.22 16.3473 14.4599 17.125 13.5184 17.125H9.83155C8.88998 17.125 8.12995 16.3473 8.12995 15.3839V9.88341C8.12995 8.92006 8.88998 8.14236 9.83155 8.14236ZM1.70161 0.875C0.760056 0.875 0 1.65268 0 2.61607V15.3143C0 16.3125 0.794087 17.125 1.76968 17.125H5.38845C6.33002 17.125 7.09005 16.3473 7.09005 15.3839V2.61607C7.09005 1.65268 6.33002 0.875 5.38845 0.875H1.70161ZM15.22 5.38244V2.61607C15.22 1.65268 14.4599 0.875 13.5184 0.875H9.83155C8.88998 0.875 8.12995 1.65268 8.12995 2.61607V5.38244C8.12995 6.34583 8.88998 7.12353 9.83155 7.12353H13.5184C14.4599 7.12353 15.22 6.34583 15.22 5.38244Z" fill="white"/>
</svg>
