<svg width="37" height="20" viewBox="0 0 37 20" fill="none" xmlns="http://www.w3.org/2000/svg">
<path fill-rule="evenodd" clip-rule="evenodd" d="M7.7499 1.66656C3.83788 1.66656 0.666565 4.83788 0.666565 8.7499C0.666565 12.6619 3.83788 15.8332 7.7499 15.8332C9.40565 15.8332 10.9287 15.2651 12.1348 14.3132L15.1784 17.3568C15.5038 17.6822 16.0315 17.6822 16.3569 17.3568C16.6823 17.0314 16.6823 16.5037 16.3569 16.1783L13.3133 13.1347C14.2651 11.9286 14.8332 10.4056 14.8332 8.7499C14.8332 4.83788 11.6619 1.66656 7.7499 1.66656ZM2.33323 8.7499C2.33323 5.75836 4.75836 3.33323 7.7499 3.33323C10.7415 3.33323 13.1666 5.75836 13.1666 8.7499C13.1666 11.7415 10.7415 14.1666 7.7499 14.1666C4.75836 14.1666 2.33323 11.7415 2.33323 8.7499Z" fill="#B5BDC9"/>
<path d="M34.8182 0.113636V19.25H32.9091V0.113636H34.8182Z" fill="#B5BDC9"/>
</svg>
