<svg width="30" height="30" viewBox="0 0 30 30" fill="none" xmlns="http://www.w3.org/2000/svg">
<path d="M15 0C15.578 0 16.0465 0.468544 16.0465 1.04651V2.44186C16.0465 3.01983 15.578 3.48837 15 3.48837C14.422 3.48837 13.9535 3.01983 13.9535 2.44186V1.04651C13.9535 0.468544 14.422 0 15 0Z" fill="#438DA6"/>
<path d="M15 6.97675C10.5689 6.97675 6.97675 10.5689 6.97675 15C6.97675 19.4311 10.5689 23.0233 15 23.0233C19.4311 23.0233 23.0233 19.4311 23.0233 15C23.0233 10.5689 19.4311 6.97675 15 6.97675Z" fill="#438DA6"/>
<path d="M5.87337 4.39343C5.46467 3.98474 4.80206 3.98474 4.39338 4.39343C3.98468 4.80212 3.98468 5.46473 4.39338 5.87343L5.38003 6.86008C5.78873 7.26878 6.45133 7.26878 6.86002 6.86008C7.26872 6.4514 7.26872 5.78878 6.86002 5.38009L5.87337 4.39343Z" fill="#438DA6"/>
<path d="M30 15C30 15.578 29.5315 16.0465 28.9535 16.0465H27.5582C26.9802 16.0465 26.5117 15.578 26.5117 15C26.5117 14.422 26.9802 13.9535 27.5582 13.9535H28.9535C29.5315 13.9535 30 14.422 30 15Z" fill="#438DA6"/>
<path d="M25.6067 5.87343C26.0154 5.46473 26.0154 4.80212 25.6067 4.39344C25.198 3.98474 24.5353 3.98474 24.1266 4.39344L23.14 5.38009C22.7313 5.78879 22.7313 6.4514 23.14 6.86008C23.5487 7.26878 24.2113 7.26878 24.62 6.86008L25.6067 5.87343Z" fill="#438DA6"/>
<path d="M15 26.5116C15.578 26.5116 16.0465 26.9802 16.0465 27.5581V28.9535C16.0465 29.5314 15.578 30 15 30C14.422 30 13.9535 29.5314 13.9535 28.9535V27.5581C13.9535 26.9802 14.422 26.5116 15 26.5116Z" fill="#438DA6"/>
<path d="M24.6199 23.1399C24.2112 22.7312 23.5487 22.7312 23.14 23.1399C22.7313 23.5486 22.7313 24.2112 23.14 24.6199L24.1267 25.6066C24.5354 26.0153 25.1979 26.0153 25.6066 25.6066C26.0153 25.1979 26.0153 24.5352 25.6066 24.1265L24.6199 23.1399Z" fill="#438DA6"/>
<path d="M3.48837 15C3.48837 15.578 3.01983 16.0465 2.44186 16.0465H1.04651C0.468544 16.0465 0 15.578 0 15C0 14.422 0.468544 13.9535 1.04651 13.9535H2.44186C3.01983 13.9535 3.48837 14.422 3.48837 15Z" fill="#438DA6"/>
<path d="M6.85996 24.6199C7.26864 24.2112 7.26864 23.5486 6.85996 23.1399C6.45126 22.7312 5.78865 22.7312 5.37997 23.1399L4.3933 24.1265C3.98462 24.5352 3.98462 25.1979 4.3933 25.6066C4.80199 26.0153 5.46461 26.0153 5.8733 25.6066L6.85996 24.6199Z" fill="#438DA6"/>
</svg>
