<svg width="17" height="17" viewBox="0 0 17 17" fill="none" xmlns="http://www.w3.org/2000/svg">
<path d="M8.08159 0C8.63952 0 9.09179 0.422847 9.09179 0.944444C9.09179 1.42879 8.70182 1.82798 8.1994 1.88253L8.08159 1.88889H3.0306C2.51253 1.88889 2.08555 2.25349 2.02719 2.72319L2.0204 2.83333V14.1667C2.0204 14.651 2.41038 15.0502 2.91279 15.1048L3.0306 15.1111H7.57649C8.13442 15.1111 8.58669 15.5339 8.58669 16.0556C8.58669 16.5399 8.19672 16.9391 7.6943 16.9936L7.57649 17H3.0306C1.41663 17 0.0973219 15.8205 0.00514456 14.3331L0 14.1667V2.83333C0 1.32442 1.26166 0.0909871 2.85253 0.0048097L3.0306 0H8.08159ZM13.8468 5.16089L16.7041 7.83218C17.0986 8.20099 17.0986 8.79901 16.7041 9.16782L13.8468 11.8391C13.4523 12.208 12.8128 12.208 12.4182 11.8391C12.0237 11.4703 12.0237 10.8723 12.4182 10.5035L13.551 9.44444H8.08159C7.52366 9.44444 7.07139 9.02162 7.07139 8.5C7.07139 7.97838 7.52366 7.55556 8.08159 7.55556H13.551L12.4182 6.49653C12.0237 6.12771 12.0237 5.52971 12.4182 5.16089C12.8128 4.79205 13.4523 4.79205 13.8468 5.16089Z" fill="#858585"/>
</svg>
