<svg width="14" height="16" viewBox="0 0 14 16" fill="none" xmlns="http://www.w3.org/2000/svg">
<path d="M7 10.1053C6.16667 10.1053 5.45833 9.85965 4.875 9.36842C4.29167 8.87719 4 8.2807 4 7.57895V2.52632C4 1.82456 4.29167 1.22807 4.875 0.736842C5.45833 0.245614 6.16667 0 7 0C7.83333 0 8.54167 0.245614 9.125 0.736842C9.70833 1.22807 10 1.82456 10 2.52632V7.57895C10 8.2807 9.70833 8.87719 9.125 9.36842C8.54167 9.85965 7.83333 10.1053 7 10.1053ZM6 16V13.4105C4.26667 13.214 2.83333 12.5614 1.7 11.4526C0.566666 10.3439 0 9.05263 0 7.57895H2C2 8.74386 2.48767 9.73698 3.463 10.5583C4.43833 11.3796 5.61733 11.79 7 11.7895C8.38333 11.7895 9.56267 11.3788 10.538 10.5575C11.5133 9.73614 12.0007 8.7433 12 7.57895H14C14 9.05263 13.4333 10.3439 12.3 11.4526C11.1667 12.5614 9.73333 13.214 8 13.4105V16H6Z" fill="#8491A5"/>
</svg>
