<svg width="17" height="16" viewBox="0 0 17 16" fill="none" xmlns="http://www.w3.org/2000/svg">
<path fill-rule="evenodd" clip-rule="evenodd" d="M10.0293 0.24351C10.3368 0.0222348 10.7703 -0.0812403 11.1967 0.0747764C12.1112 0.409326 12.9499 0.899135 13.6813 1.51178C14.0289 1.80292 14.1561 2.22952 14.1183 2.6061C14.0555 3.23348 14.1662 3.83922 14.4676 4.36133C14.7357 4.82565 15.1365 5.19241 15.6261 5.45025L15.8138 5.54182C16.1595 5.69762 16.4661 6.0219 16.5438 6.46975C16.6246 6.93592 16.6667 7.41483 16.6667 7.90292C16.6667 8.391 16.6246 8.87 16.5438 9.33617C16.4739 9.73922 16.2185 10.0422 15.9162 10.2123L15.8138 10.2641C15.2388 10.5233 14.7692 10.9223 14.4676 11.4446C14.1662 11.9667 14.0555 12.5723 14.1183 13.1997C14.156 13.5763 14.0289 14.0028 13.6813 14.294C12.9499 14.9066 12.1112 15.3964 11.1968 15.7309C10.7704 15.887 10.3368 15.7835 10.0294 15.5622C9.51717 15.1935 8.93675 14.9862 8.33333 14.9862C7.72992 14.9862 7.1495 15.1935 6.63728 15.5622C6.32987 15.7835 5.89627 15.887 5.46982 15.7309C4.55546 15.3964 3.71668 14.9066 2.98525 14.2939C2.63769 14.0028 2.51058 13.5763 2.54828 13.1997C2.6111 12.5723 2.50038 11.9667 2.19895 11.4446C1.93088 10.9803 1.53013 10.6135 1.04049 10.3557L0.852792 10.2641C0.507167 10.1083 0.200625 9.784 0.122933 9.33617C0.0420584 8.87 0 8.391 0 7.90292C0 7.41475 0.0420584 6.93583 0.122925 6.46958C0.192848 6.06656 0.448138 5.7636 0.750458 5.59345L0.852783 5.5417C1.42787 5.28246 1.89737 4.88358 2.19895 4.36123C2.50038 3.83914 2.61111 3.23343 2.54828 2.60609C2.51057 2.22953 2.63768 1.80296 2.98525 1.51183C3.7167 0.89916 4.5555 0.409335 5.46989 0.0747764C5.89632 -0.0812487 6.32991 0.0222348 6.63732 0.24351C7.1495 0.612193 7.72992 0.819526 8.33333 0.819526C8.93675 0.819526 9.51717 0.612193 10.0293 0.24351ZM10.8264 1.71777C10.1051 2.19213 9.25442 2.48619 8.33333 2.48619C7.41225 2.48619 6.56157 2.19213 5.84027 1.71777C5.25606 1.9535 4.71252 2.26985 4.2235 2.6533C4.27327 3.5145 4.10249 4.39754 3.64232 5.19456C3.18204 5.99181 2.50246 6.58133 1.73148 6.96883C1.68879 7.27367 1.66667 7.5855 1.66667 7.90292C1.66667 8.22034 1.68879 8.53209 1.73148 8.837C2.50246 9.2245 3.18204 9.814 3.64232 10.6113C4.10248 11.4083 4.27327 12.2913 4.2235 13.1524C4.7125 13.5359 5.25602 13.8523 5.8402 14.088C6.56151 13.6136 7.41225 13.3195 8.33333 13.3195C9.25442 13.3195 10.1052 13.6136 10.8265 14.088C11.4106 13.8523 11.9541 13.5359 12.4431 13.1525C12.3933 12.2913 12.5641 11.4083 13.0243 10.6113C13.4846 9.81392 14.1642 9.22442 14.9352 8.83692C14.9779 8.53209 15 8.22034 15 7.90292C15 7.5855 14.9779 7.27375 14.9352 6.969C14.1642 6.5815 13.4846 5.99194 13.0243 5.19467C12.5641 4.39759 12.3932 3.5145 12.4431 2.65325C11.9541 2.26983 11.4106 1.95349 10.8264 1.71777ZM8.33333 4.5695C10.1742 4.5695 11.6667 6.06188 11.6667 7.90283C11.6667 9.74375 10.1742 11.2362 8.33333 11.2362C6.49238 11.2362 5 9.74375 5 7.90283C5 6.06188 6.49238 4.5695 8.33333 4.5695ZM8.33333 6.23617C7.41283 6.23617 6.66667 6.98233 6.66667 7.90283C6.66667 8.82333 7.41283 9.5695 8.33333 9.5695C9.25383 9.5695 10 8.82333 10 7.90283C10 6.98233 9.25383 6.23617 8.33333 6.23617Z" fill="#8491A5"/>
</svg>
