<svg width="16" height="16" viewBox="0 0 16 16" fill="none" xmlns="http://www.w3.org/2000/svg">
<path d="M12.1855 5.42601L12.5266 5.12441C12.7983 4.8847 13.1668 4.75 13.551 4.74994C13.9352 4.74988 14.3037 4.88446 14.5755 5.12409C14.8472 5.36371 14.9999 5.68874 15 6.02768C15.0001 6.36662 14.8475 6.6917 14.5758 6.93141L14.2347 7.23301M12.1855 5.42601C12.1855 5.42601 12.2282 6.06561 12.8686 6.63046C13.5089 7.19531 14.2347 7.23301 14.2347 7.23301M12.1855 5.42601L9.04647 8.19501C8.83278 8.38221 8.72668 8.47646 8.63531 8.57981C8.52773 8.70201 8.43562 8.83331 8.35972 8.97371C8.29562 9.09201 8.24846 9.21746 8.1534 9.46901L7.84908 10.275L7.75034 10.5357M14.2347 7.23301L11.0957 10.002C10.882 10.1905 10.7759 10.2841 10.6587 10.3647C10.5202 10.4596 10.3713 10.5409 10.2122 10.6078C10.0781 10.6644 9.93586 10.706 9.6507 10.7898L8.73699 11.0583L8.44151 11.1454M7.75034 10.5357L7.65234 10.797C7.62951 10.8576 7.62626 10.9227 7.64295 10.9849C7.65963 11.047 7.6956 11.1039 7.74683 11.1491C7.79806 11.1943 7.86253 11.226 7.93303 11.2407C8.00353 11.2555 8.07728 11.2526 8.14603 11.2325L8.44151 11.1454M7.75034 10.5357L8.44151 11.1454" stroke="#8491A5" stroke-width="1.5"/>
<path d="M4.68429 8.65H6.52643M4.68429 6.05H9.47386M4.68429 11.25H5.78957M13.3998 2.2618C12.537 1.5 11.1473 1.5 8.36857 1.5H6.89486C4.11617 1.5 2.72646 1.5 1.8636 2.2618C1 3.02295 1 4.24885 1 6.7V9.3C1 11.7511 1 12.977 1.8636 13.7382C2.72646 14.5 4.11617 14.5 6.89486 14.5H8.36857C11.1473 14.5 12.537 14.5 13.3998 13.7382C14.0954 13.1252 14.2303 12.212 14.2568 10.6" stroke="#8491A5" stroke-width="1.5" stroke-linecap="round"/>
</svg>
