<svg width="27" height="28" fill="none" xmlns="http://www.w3.org/2000/svg"><g filter="url(#prefix__prefix__filter0_d_134_1255)"><path d="M18.417 20L5.435 9.163A3.872 3.872 0 014.38 7.734 4.62 4.62 0 014 5.888c0-.643.13-1.276.38-1.846.25-.57.61-1.06 1.054-1.43L8.579 0l12.982 10.838c.443.37.804.86 1.053 1.43.25.57.38 1.203.38 1.845 0 .643-.13 1.276-.38 1.847-.25.57-.61 1.06-1.053 1.429L18.417 20zM8.578 1.743L6.127 3.782a2.49 2.49 0 00-.678.919 2.97 2.97 0 00-.245 1.188c0 .413.084.82.245 1.187.16.367.393.682.678.92l12.293 10.26 2.451-2.037a2.49 2.49 0 00.678-.92c.16-.366.244-.774.244-1.187 0-.414-.084-.82-.244-1.188a2.49 2.49 0 00-.678-.92L8.578 1.744z" fill="#4BC0C8"/></g><path d="M8.566 18.247L6.12 16.204a2.492 2.492 0 01-.678-.92 2.973 2.973 0 01-.244-1.187c0-.413.084-.82.244-1.187a2.49 2.49 0 01.678-.92l6.335-5.267-1.045-.87-5.975 4.968a3.87 3.87 0 00-1.054 1.43A4.62 4.62 0 004 14.096c0 .642.13 1.276.38 1.846.25.57.61 1.06 1.054 1.429L8.57 19.99l3.88-3.228-1.046-.873-2.838 2.358zM21.567 2.628L18.43.01l-3.884 3.23 1.045.874 2.837-2.356 2.45 2.043c.284.238.516.553.677.92.16.367.244.774.244 1.187 0 .414-.084.821-.244 1.188a2.49 2.49 0 01-.678.92l-6.337 5.262 1.046.873 5.976-4.972a3.872 3.872 0 001.054-1.43c.25-.57.38-1.203.38-1.846a4.62 4.62 0 00-.38-1.846 3.872 3.872 0 00-1.054-1.429h.005z" fill="#02819B"/><path d="M11.117 6.088L6.18 10.196l.689 1.17 4.937-4.108-.688-1.17z" fill="#02819B"/><defs><filter id="prefix__prefix__filter0_d_134_1255" x=".001" y="0" width="26.993" height="28" filterUnits="userSpaceOnUse" color-interpolation-filters="sRGB"><feFlood flood-opacity="0" result="BackgroundImageFix"/><feColorMatrix in="SourceAlpha" values="0 0 0 0 0 0 0 0 0 0 0 0 0 0 0 0 0 0 127 0" result="hardAlpha"/><feOffset dy="4"/><feGaussianBlur stdDeviation="2"/><feComposite in2="hardAlpha" operator="out"/><feColorMatrix values="0 0 0 0 0 0 0 0 0 0 0 0 0 0 0 0 0 0 0.25 0"/><feBlend in2="BackgroundImageFix" result="effect1_dropShadow_134_1255"/><feBlend in="SourceGraphic" in2="effect1_dropShadow_134_1255" result="shape"/></filter></defs></svg>