<svg width="7" height="8" viewBox="0 0 7 8" fill="none" xmlns="http://www.w3.org/2000/svg">
<path fill-rule="evenodd" clip-rule="evenodd" d="M4.44413 2.54384C4.5835 2.69814 4.803 2.69056 4.9344 2.52691C5.0658 2.36326 5.05934 2.10551 4.91998 1.95121L3.15762 0L1.48886 1.95955C1.35341 2.1186 1.35341 2.37646 1.48886 2.5355C1.6243 2.69454 1.84389 2.69454 1.97933 2.5355L2.86126 1.49989L2.86126 5.60738C2.86126 5.8323 3.01653 6.01463 3.20807 6.01463C3.39962 6.01463 3.55489 5.8323 3.55489 5.60738L3.55489 1.55931L4.44413 2.54384ZM0.346819 5.60738C0.538362 5.60738 0.693638 5.78971 0.693638 6.01463V7.18549H5.93927V6.01463C5.93927 5.78971 6.09455 5.60738 6.28609 5.60738C6.47764 5.60738 6.63291 5.78971 6.63291 6.01463V8H0V6.01463C0 5.78971 0.155276 5.60738 0.346819 5.60738Z" fill="white"/>
</svg>
