<svg width="8" height="8" viewBox="0 0 8 8" fill="none" xmlns="http://www.w3.org/2000/svg">
<path d="M1.21381 1.26619H6.73105V6.56115H1.21381V1.26619Z" fill="url(#paint0_linear_120_2631)"/>
<path fill-rule="evenodd" clip-rule="evenodd" d="M7.77889 0.333467C8.03763 0.55574 8.07464 0.954729 7.86157 1.22463L5.04817 4.78836L4.11121 3.98344L6.9246 0.419709C7.13768 0.149805 7.52016 0.111193 7.77889 0.333467Z" fill="white"/>
<path d="M3.78273 5.2675L3.92509 4.34948L4.70539 5.07302L3.93234 5.39288C3.85272 5.42582 3.76905 5.3557 3.78273 5.2675Z" fill="white"/>
<path fill-rule="evenodd" clip-rule="evenodd" d="M0 1.03597C0 0.46382 0.444627 0 0.993104 0H5.51724C5.76101 0 5.95862 0.206142 5.95862 0.460432C5.95862 0.714721 5.76101 0.920863 5.51724 0.920863H0.993104C0.932162 0.920863 0.882759 0.972399 0.882759 1.03597V6.96403C0.882759 7.0276 0.932162 7.07914 0.993104 7.07914H6.95173C7.01267 7.07914 7.06207 7.0276 7.06207 6.96403V3.28058C7.06207 3.02629 7.25968 2.82014 7.50345 2.82014C7.74722 2.82014 7.94483 3.02629 7.94483 3.28058V6.96403C7.94483 7.53618 7.5002 8 6.95173 8H0.993104C0.444628 8 0 7.53618 0 6.96403V1.03597Z" fill="white"/>
<defs>
<linearGradient id="paint0_linear_120_2631" x1="4.00921" y1="-4.71712" x2="3.70726" y2="6.55405" gradientUnits="userSpaceOnUse">
<stop stop-color="white"/>
<stop offset="1" stop-color="white" stop-opacity="0"/>
</linearGradient>
</defs>
</svg>
