<svg width="27" height="29" viewBox="0 0 27 29" fill="none" xmlns="http://www.w3.org/2000/svg">
<g filter="url(#filter0_d_99_1669)">
<path d="M18.4166 20.4305L5.4345 9.50076C4.99179 9.12881 4.63035 8.63436 4.38081 8.05929C4.13127 7.48423 4.00098 6.84549 4.00098 6.19721C4.00098 5.54893 4.13127 4.91019 4.38081 4.33513C4.63035 3.76006 4.99179 3.26561 5.4345 2.89366L8.57908 0.258789L21.5612 11.1899C22.0036 11.5621 22.3649 12.0566 22.6142 12.6316C22.8636 13.2067 22.9938 13.8453 22.9938 14.4935C22.9938 15.1416 22.8636 15.7803 22.6142 16.3553C22.3649 16.9304 22.0036 17.4249 21.5612 17.797L18.4166 20.4305ZM8.5779 2.01632L6.12683 4.07294C5.8419 4.31206 5.60926 4.63007 5.44864 4.99999C5.28801 5.36991 5.20414 5.78084 5.20414 6.19792C5.20414 6.615 5.28801 7.02593 5.44864 7.39585C5.60926 7.76578 5.8419 8.08379 6.12683 8.32291L18.4201 18.6729L20.8712 16.6178C21.1559 16.3784 21.3883 16.0604 21.5488 15.6905C21.7092 15.3206 21.793 14.9097 21.793 14.4928C21.793 14.0758 21.7092 13.665 21.5488 13.2951C21.3883 12.9252 21.1559 12.6071 20.8712 12.3678L8.5779 2.01632Z" fill="#4BC0C8"/>
</g>
<path d="M8.56623 18.663L6.11873 16.6021C5.83404 16.3628 5.60162 16.0447 5.44116 15.6748C5.2807 15.3049 5.19693 14.8941 5.19693 14.4771C5.19693 14.0602 5.2807 13.6493 5.44116 13.2795C5.60162 12.9096 5.83404 12.5915 6.11873 12.3522L12.4542 7.03969L11.4092 6.16235L5.43353 11.1729C4.99081 11.5448 4.62937 12.0393 4.37983 12.6143C4.13029 13.1894 4 13.8281 4 14.4764C4 15.1247 4.13029 15.7634 4.37983 16.3385C4.62937 16.9136 4.99081 17.408 5.43353 17.78L8.56979 20.4205L12.4495 17.1647L11.4044 16.2845L8.56623 18.663Z" fill="#02819B"/>
<path d="M21.567 2.90936L18.4296 0.268799L14.5463 3.52749L15.5914 4.40768L18.4284 2.03202L20.8771 4.09292C21.1618 4.33224 21.3942 4.65032 21.5546 5.02021C21.7151 5.39011 21.7989 5.80094 21.7989 6.2179C21.7989 6.63486 21.7151 7.04569 21.5546 7.41559C21.3942 7.78548 21.1618 8.10356 20.8771 8.34289L14.5404 13.6511L15.5854 14.5313L21.5623 9.51647C22.005 9.14452 22.3664 8.65006 22.616 8.075C22.8655 7.49993 22.9958 6.8612 22.9958 6.21292C22.9958 5.56463 22.8655 4.9259 22.616 4.35083C22.3664 3.77577 22.005 3.28131 21.5623 2.90936H21.567Z" fill="#02819B"/>
<path d="M20.2384 8.86841L17.8336 10.888L18.5212 12.0673L21.015 9.9722C20.7538 9.61044 20.4961 9.24014 20.2384 8.86841Z" fill="#02819B"/>
<path d="M11.1176 6.39914L6.18054 10.5421L6.86883 11.7219L11.8059 7.57894L11.1176 6.39914Z" fill="#02819B"/>
<defs>
<filter id="filter0_d_99_1669" x="0.000976562" y="0.258789" width="26.9928" height="28.1716" filterUnits="userSpaceOnUse" color-interpolation-filters="sRGB">
<feFlood flood-opacity="0" result="BackgroundImageFix"/>
<feColorMatrix in="SourceAlpha" type="matrix" values="0 0 0 0 0 0 0 0 0 0 0 0 0 0 0 0 0 0 127 0" result="hardAlpha"/>
<feOffset dy="4"/>
<feGaussianBlur stdDeviation="2"/>
<feComposite in2="hardAlpha" operator="out"/>
<feColorMatrix type="matrix" values="0 0 0 0 0 0 0 0 0 0 0 0 0 0 0 0 0 0 0.25 0"/>
<feBlend mode="normal" in2="BackgroundImageFix" result="effect1_dropShadow_99_1669"/>
<feBlend mode="normal" in="SourceGraphic" in2="effect1_dropShadow_99_1669" result="shape"/>
</filter>
</defs>
</svg>
