<svg width="8" height="11" viewBox="0 0 8 11" fill="none" xmlns="http://www.w3.org/2000/svg">
<path fill-rule="evenodd" clip-rule="evenodd" d="M4.84043 4.38709V2.06452C4.84043 1.42315 4.32445 0.903226 3.68795 0.903226C3.05145 0.903226 2.53547 1.42315 2.53547 2.06452V4.3871C2.53547 5.02846 3.05145 5.54839 3.68795 5.54839C4.32445 5.54839 4.84043 5.02846 4.84043 4.38709ZM3.68795 0C2.5564 0 1.6391 0.924316 1.6391 2.06452V4.3871C1.6391 5.5273 2.5564 6.45161 3.68795 6.45161C4.8195 6.45161 5.7368 5.5273 5.7368 4.38709V2.06452C5.7368 0.924315 4.8195 0 3.68795 0Z" fill="white"/>
<path d="M2.73181 2.13709C2.73181 1.66943 3.09873 1.29032 3.55135 1.29032C4.00397 1.29032 4.37089 1.66943 4.37089 2.13709V4.31451C4.37089 4.78217 4.00397 5.16128 3.55135 5.16128C3.09873 5.16128 2.73181 4.78217 2.73181 4.31451V2.13709Z" fill="white"/>
<path fill-rule="evenodd" clip-rule="evenodd" d="M0.472055 2.58063C0.732764 2.58063 0.944111 2.79616 0.944111 3.06201V4.39924C0.944111 5.89179 2.13063 7.10175 3.59427 7.10175H3.7816C5.24524 7.10175 6.43176 5.89179 6.43176 4.39924V3.06201C6.43176 2.79616 6.6431 2.58063 6.90381 2.58063C7.16452 2.58063 7.37587 2.79616 7.37587 3.06201V4.39924C7.37587 6.42351 5.76666 8.0645 3.7816 8.0645H3.59427C1.60921 8.0645 0 6.42351 0 4.39924V3.06201C0 2.79616 0.211346 2.58063 0.472055 2.58063Z" fill="white"/>
<path fill-rule="evenodd" clip-rule="evenodd" d="M3.5 7C3.77614 7 4 7.26117 4 7.58333V10.4167C4 10.7388 3.77614 11 3.5 11C3.22386 11 3 10.7388 3 10.4167V7.58333C3 7.26117 3.22386 7 3.5 7Z" fill="white"/>
</svg>
